<svg width="813.68918" height="551.12771" xmlns="http://www.w3.org/2000/svg" data-name="Layer 1">

 <g>
  <title>Layer 1</title>
  <path id="svg_2" fill="#fff" d="m135.33632,420.59947a140.91319,140.91319 0 0 0 64.9739,57.40185a60.68214,60.68214 0 0 0 18.31719,5.096a34.80383,34.80383 0 0 0 18.00608,-3.36127c5.26682,-2.42023 10.37392,-5.50577 16.13734,-6.60357a21.31049,21.31049 0 0 1 16.89548,4.276c5.9908,4.48964 10.01113,10.86414 13.726,17.23448c4.12469,7.07306 8.2969,14.4851 15.263,19.148c0.844,0.565 -0.082,1.84162 -0.92474,1.27749c-12.11987,-8.11271 -15.58511,-23.4813 -25.64539,-33.48206c-4.69431,-4.66654 -10.82338,-7.94667 -17.605,-7.125c-5.93022,0.71848 -11.19943,3.89582 -16.511,6.39244a37.13841,37.13841 0 0 1 -17.48363,3.94258a56.09908,56.09908 0 0 1 -18.44553,-4.37291a136.71118,136.71118 0 0 1 -36.571,-22.09675a143.4121,143.4121 0 0 1 -31.576,-37.09093c-0.51542,-0.87129 0.9312,-1.50194 1.44325,-0.63634l0.00005,-0.00001z"/>
  <path id="svg_3" fill="#fff" d="m191.34309,474.70664a21.14146,21.14146 0 0 1 -25.97992,8.63067c-0.93968,-0.38289 -0.38883,-1.86108 0.55209,-1.47768a19.57654,19.57654 0 0 0 24.15033,-8.07777c0.52268,-0.86983 1.79718,0.05988 1.27749,0.92473l0.00001,0.00005z"/>
  <path id="svg_4" fill="#fff" d="m234.12459,481.31486a40.74844,40.74844 0 0 0 -16.85577,-24.449c-0.842,-0.56795 0.08373,-1.84475 0.92473,-1.27749a42.38455,42.38455 0 0 1 17.48825,25.477c0.22956,0.99052 -1.3289,1.23458 -1.55721,0.24943l0,0.00006z"/>
  <path id="svg_5" fill="#fff" d="m154.77259,446.91214a11.96709,11.96709 0 0 0 2.88562,-10.9826c-0.242,-0.98712 1.31678,-1.23013 1.55721,-0.24943a13.41012,13.41012 0 0 1 -3.16534,12.15676a0.815,0.815 0 0 1 -1.10111,0.17638a0.79252,0.79252 0 0 1 -0.17638,-1.10111z"/>
  <path id="svg_8" fill="#fff" d="m239.10652,418.81601a21.14147,21.14147 0 0 1 -25.93977,-8.75061c-0.51976,-0.87146 0.81,-1.72007 1.33048,-0.84745a19.57654,19.57654 0 0 0 24.146,8.09057c0.941,-0.37982 1.39889,1.12983 0.46325,1.50749l0.00004,0z"/>
  <path id="svg_9" fill="#fff" d="m269.28659,449.84975a40.74849,40.74849 0 0 0 1.26158,-29.66949c-0.33036,-0.96042 1.17753,-1.42251 1.50748,-0.46325a42.38456,42.38456 0 0 1 -1.37554,30.87112c-0.41308,0.92909 -1.80435,0.18566 -1.39352,-0.73838z"/>
  <path id="svg_10" fill="#fff" d="m226.64122,374.60567a11.96709,11.96709 0 0 0 8.91629,-7.03165c0.40109,-0.93386 1.792,-0.18939 1.39352,0.73839a13.41011,13.41011 0 0 1 -9.84656,7.80075a0.815,0.815 0 0 1 -0.98537,-0.52212a0.79252,0.79252 0 0 1 0.52212,-0.98537z"/>
  <path id="svg_12" fill="#fff" d="m653.01926,455.59775c-0.0498,0.32 -0.09961,0.63995 -0.15967,0.94995a92.075,92.075 0 0 1 -5.8501,20.12a93.10183,93.10183 0 0 1 -4.18994,8.72a91.99328,91.99328 0 0 1 -10.60986,15.49c-0.22022,0.26 -0.4502,0.52 -0.67041,0.78q-2.60963,2.985 -5.46973,5.68a36.39572,36.39572 0 0 1 -10.05029,7a22.87341,22.87341 0 0 1 -9.58008,1.84c-0.61963,0 -1.23974,-0.03 -1.86963,-0.06994c-2.52,-0.16 -5.10009,-0.5 -7.64013,-0.43006a16.30969,16.30969 0 0 0 -3.79981,0.5a13.13714,13.13714 0 0 0 -7.95019,6.57a18.58051,18.58051 0 0 0 -0.9502,1.89c-0.06982,0.16 -0.13965,0.33 -0.19971,0.49l-1.10009,0a21.1672,21.1672 0 0 1 1.08007,-2.38c0.21,-0.41 0.44,-0.81 0.67969,-1.2a13.78947,13.78947 0 0 1 9.15039,-6.56995a18.74092,18.74092 0 0 1 3.5,-0.31c2.58985,-0.04 5.18994,0.32 7.77,0.46c0.27,0.01 0.54,0.03 0.81006,0.03c0.33984,0.01 0.68994,0.01 1.02979,0.01a21.93711,21.93711 0 0 0 9.77978,-2.29a39.55755,39.55755 0 0 0 9.81006,-7.4c1.55029,-1.53 3.04,-3.13 4.46,-4.78c0.07031,-0.07 0.13037,-0.14 0.18994,-0.21a90.1187,90.1187 0 0 0 14.68018,-23.71c0.14013,-0.31 0.27,-0.62 0.3999,-0.93a91.45773,91.45773 0 0 0 5.57031,-19.35c0.06006,-0.31 0.10987,-0.63 0.15967,-0.94c0.10008,-0.64 1.1201,-0.60002 1.02,0.04z"/>
  <path id="svg_13" fill="#fff" d="m631.14642,501.36708a13.66361,13.66361 0 0 0 17.66652,-0.967c0.47428,-0.4529 -0.20722,-1.21118 -0.68213,-0.75767a12.65223,12.65223 0 0 1 -16.43539,0.86589c-0.5204,-0.39916 -1.06643,0.46188 -0.549,0.85875l0,0.00003z"/>
  <path id="svg_14" fill="#fff" d="m606.9885,515.47843a26.33556,26.33556 0 0 1 4.34145,-18.6951c0.3717,-0.541 -0.4875,-1.08937 -0.85876,-0.549a27.393,27.393 0 0 0 -4.47812,19.46313c0.09669,0.65 1.0916,0.42742 0.99543,-0.219l0,-0.00003z"/>
  <path id="svg_15" fill="#fff" d="m646.54924,475.98858a7.73425,7.73425 0 0 1 -4.33762,-5.91985c-0.08841,-0.65089 -1.08326,-0.42763 -0.99543,0.219a8.66688,8.66688 0 0 0 4.78405,6.55958a0.52675,0.52675 0 0 0 0.70388,-0.15488a0.51221,0.51221 0 0 0 -0.15488,-0.70388l0,0.00003z"/>
  <path id="svg_17" fill="#fff" d="m589.73947,478.05771c-0.02,0.34 -0.04,0.67 -0.06982,1.01c-0.19043,2.63 -0.5,5.25 -0.94043,7.84a36.44744,36.44744 0 0 1 -3.81982,11.63995a22.80089,22.80089 0 0 1 -6.54,7.23q-0.75,0.57 -1.52979,1.08c-3.16992,2.07995 -6.70019,3.92 -9.1001,6.93994a12.67789,12.67789 0 0 0 -2.5,8.95a17.46159,17.46159 0 0 0 0.31983,2.38l-1.02979,0a18.56527,18.56527 0 0 1 -0.29,-1.96q-0.01537,-0.21 -0.02978,-0.42a13.70466,13.70466 0 0 1 3.37988,-10.34c2.54981,-2.81 5.96973,-4.58 9.08008,-6.67c0.23,-0.15 0.44971,-0.31 0.66992,-0.47c0.27979,-0.19 0.56006,-0.4 0.83008,-0.61a21.60772,21.60772 0 0 0 6.42969,-7.71a39.17487,39.17487 0 0 0 3.37012,-11.81q0.46508,-3.24 0.70019,-6.5c0,-0.1 0.00977,-0.19 0.00977,-0.29l0,-0.01a90.78914,90.78914 0 0 0 -2.52979,-27.76c-0.09033,-0.33 -0.18017,-0.65 -0.26025,-0.98a91.11565,91.11565 0 0 0 -7.18994,-18.79l0,-0.02c-0.14991,-0.28 -0.29,-0.56 -0.44,-0.84c-0.31,-0.57 0.52979,-1.16 0.83008,-0.58c0.1499,0.28 0.29,0.56 0.42969,0.84a0.01,0.01 0 0 1 0.01025,0.01a91.41005,91.41005 0 0 1 7.48,19.73a89.18458,89.18458 0 0 1 1.87012,9.34a91.96388,91.96388 0 0 1 0.85981,18.77011z"/>
  <path id="svg_18" fill="#fff" d="m589.18264,479.0794a13.66361,13.66361 0 0 0 13.52355,-11.40854c0.106,-0.64717 -0.89467,-0.8423 -1.00082,-0.19427a12.65221,12.65221 0 0 1 -12.60141,10.5866c-0.65583,-0.00539 -0.5734,1.01085 0.07868,1.0162l0,0.00001z"/>
  <path id="svg_19" fill="#fff" d="m578.3899,504.89126a26.33559,26.33559 0 0 1 -7.78933,-17.54084c-0.029,-0.65577 -1.04512,-0.5763 -1.0162,0.07869a27.39291,27.39291 0 0 0 8.14261,18.23635c0.46854,0.46076 1.12892,-0.31595 0.66292,-0.7742z"/>
  <path id="svg_20" fill="#fff" d="m586.20133,449.54253a7.73425,7.73425 0 0 1 -7.02751,-2.11513c-0.46247,-0.46647 -1.12239,0.31077 -0.66293,0.77421a8.66691,8.66691 0 0 0 7.76912,2.35713a0.52675,0.52675 0 0 0 0.46876,-0.54745a0.5122,0.5122 0 0 0 -0.54744,-0.46876z"/>
  <path id="svg_22" fill="#fff" d="m56.66346,30.7102a140.91315,140.91315 0 0 0 -27.21637,82.31554a60.68211,60.68211 0 0 0 2.52009,18.84509a34.8038,34.8038 0 0 0 10.17314,15.23234c4.29687,3.89022 9.1426,7.37188 12.419,12.23886a21.31049,21.31049 0 0 1 2.71465,17.21547c-1.77118,7.2739 -6.05036,13.47759 -10.44588,19.39885c-4.88037,6.57443 -10.05372,13.32589 -11.60056,21.56465c-0.18743,0.99824 -1.7254,0.64905 -1.53826,-0.34768c2.69125,-14.334 15.45782,-23.5653 20.69508,-36.74845c2.4438,-6.1515 3.04857,-13.07675 -0.37443,-18.98847c-2.99327,-5.16954 -7.98715,-8.76414 -12.37187,-12.66546a37.13848,37.13848 0 0 1 -10.50208,-14.52334a56.0991,56.0991 0 0 1 -3.23532,-18.67866a136.71109,136.71109 0 0 1 5.92994,-42.31478a143.41208,143.41208 0 0 1 21.68015,-43.62056c0.5983,-0.81659 1.74715,0.26534 1.15276,1.0766l-0.00004,0z"/>
  <path id="svg_23" fill="#fff" d="m28.94887,103.48551a21.14148,21.14148 0 0 1 -18.15434,-20.49065c-0.0176,-1.01453 1.55811,-1.08955 1.57574,-0.07367a19.57653,19.57653 0 0 0 16.92628,19.026c1.00531,0.13839 0.65188,1.67585 -0.34768,1.53826l0,0.00006z"/>
  <path id="svg_24" fill="#fff" d="m39.70185,145.41762a40.74842,40.74842 0 0 0 15.84767,-25.11416c0.191,-0.99754 1.729,-0.64867 1.53826,0.34767a42.38456,42.38456 0 0 1 -16.54406,26.10005c-0.82037,0.60069 -1.65779,-0.73613 -0.84187,-1.33356z"/>
  <path id="svg_25" fill="#fff" d="m40.1174,58.92991a11.9671,11.9671 0 0 0 11.23232,-1.6671c0.81235,-0.61079 1.64893,0.72674 0.84186,1.33355a13.41011,13.41011 0 0 1 -12.42186,1.87181a0.815,0.815 0 0 1 -0.59529,-0.943a0.79252,0.79252 0 0 1 0.943,-0.59529l-0.00003,0.00003z"/>
  <path id="svg_27" fill="#fff" d="m165.06636,83.99252a140.91307,140.91307 0 0 0 -71.29039,49.33822a60.6822,60.6822 0 0 0 -9.3339,16.564a34.80392,34.80392 0 0 0 -1.04823,18.28711c1.08863,5.69313 2.86147,11.39051 2.54723,17.24913a21.3105,21.3105 0 0 1 -8.19741,15.38c-5.79358,4.74142 -12.94531,7.11836 -20.01989,9.19975c-7.855,2.311 -16.05044,4.58694 -22.24581,10.23382c-0.75066,0.6842 -1.76841,-0.52057 -1.01889,-1.20374c10.77889,-9.8246 26.53014,-9.50889 38.649,-16.88171c5.65486,-3.4403 10.30722,-8.6056 11.1334,-15.38666c0.72247,-5.92974 -1.10067,-11.80649 -2.25276,-17.56138a37.13841,37.13841 0 0 1 0.35873,-17.919a56.09921,56.09921 0 0 1 8.66263,-16.86176a136.71082,136.71082 0 0 1 30.21112,-30.21576a143.412,143.412 0 0 1 43.573,-21.77563c0.96936,-0.29178 1.23526,1.26377 0.27223,1.55365l-0.00006,-0.00004z"/>
  <path id="svg_28" fill="#fff" d="m99.12205,125.41343a21.14146,21.14146 0 0 1 -2.15846,-27.29076c0.59676,-0.82066 1.9,0.06813 1.30249,0.88987a19.57653,19.57653 0 0 0 2.05971,25.382c0.71936,0.71575 -0.48849,1.73055 -1.20374,1.01888l0,0.00001z"/>
  <path id="svg_29" fill="#fff" d="m82.46168,165.36792a40.74847,40.74847 0 0 0 27.77391,-10.51087c0.753,-0.68152 1.771,0.523 1.01889,1.20374a42.38453,42.38453 0 0 1 -28.92353,10.87876c-1.01668,-0.01431 -0.88045,-1.58586 0.13071,-1.57163l0.00002,0z"/>
  <path id="svg_30" fill="#fff" d="m134.86504,96.56251a11.96711,11.96711 0 0 0 9.97209,5.43154c1.01635,0.00141 0.879,1.573 -0.13071,1.57163a13.4101,13.4101 0 0 1 -11.04512,-5.98429a0.815,0.815 0 0 1 0.09243,-1.11131a0.7925,0.7925 0 0 1 1.11131,0.09243z"/>
  <path id="svg_31" fill="#fff" d="m473.59101,523.15545l-166.00781,0a35.03577,35.03577 0 0 1 -34.99609,-34.99609l0,-256.00781a35.03577,35.03577 0 0 1 34.99609,-34.9961l166.00781,0a35.03578,35.03578 0 0 1 34.9961,34.9961l0,256.00781a35.03578,35.03578 0 0 1 -34.9961,34.99609z"/>
  <path id="svg_32" fill="#ffa000" d="m455.59101,497.7326l-130.00781,0a34.53528,34.53528 0 0 1 -34.49609,-34.49609l0,-206.16165a34.53528,34.53528 0 0 1 34.49609,-34.4961l130.00781,0a34.53529,34.53529 0 0 1 34.4961,34.4961l0,206.16165a34.53529,34.53529 0 0 1 -34.4961,34.49609z"/>
  <rect id="svg_33" fill="#3f3d56" height="54" width="234" y="422.6989" x="274.05952"/>
  <path id="svg_35" fill="#3f3d56" d="m473.59101,523.15545l-166.00781,0a35.03577,35.03577 0 0 1 -34.99609,-34.99609l0,-256.00781a35.03577,35.03577 0 0 1 34.99609,-34.9961l166.00781,0a35.03578,35.03578 0 0 1 34.9961,34.9961l0,256.00781a35.03578,35.03578 0 0 1 -34.9961,34.99609zm-166.00781,-324a33.03333,33.03333 0 0 0 -32.99609,32.9961l0,256.00781a33.03333,33.03333 0 0 0 32.99609,32.99609l166.00781,0a33.03333,33.03333 0 0 0 32.9961,-32.99609l0,-256.00781a33.03334,33.03334 0 0 0 -32.9961,-32.9961l-166.00781,0z"/>
  <path id="svg_37" fill="#f0f0f0" d="m481.05952,188.69891c-0.52344,0 -1.04248,0.01861 -1.5586,0.048a27.00656,27.00656 0 0 0 -37.03027,-33.43835c-4.32764,-12.18189 -13.62988,-20.60968 -24.41113,-20.60968s-20.0835,8.42779 -24.41114,20.60968a27.03631,27.03631 0 0 0 -23.17773,0c-4.32764,-12.18189 -13.62988,-20.60968 -24.41113,-20.60968s-20.0835,8.42779 -24.41114,20.60968a27.00641,27.00641 0 0 0 -37.02441,33.45489c-0.51807,-0.03949 -1.03906,-0.06457 -1.56445,-0.06457c-14.91162,0 -27,16.11774 -27,36s12.08838,36 27,36c12.28125,0 22.64013,-10.93683 25.91553,-25.90131a27.01184,27.01184 0 0 0 30.67333,5.29163c4.32764,12.18188 13.62989,20.60968 24.41114,20.60968c12.28125,0 22.64013,-10.93683 25.91553,-25.90131a27.01184,27.01184 0 0 0 30.67333,5.29163c4.32764,12.18188 13.62989,20.60968 24.41114,20.60968s20.08349,-8.4278 24.41113,-20.60968a27.00151,27.00151 0 1 0 11.58887,-51.39032l0,0.00003z"/>
  <circle id="svg_38" fill="#fff" r="5" cy="260.6989" cx="337.05952"/>
  <circle id="svg_39" fill="#fff" r="5" cy="345.6989" cx="368.05952"/>
  <circle id="svg_40" fill="#fff" r="5" cy="287.6989" cx="400.05952"/>
  <circle id="svg_41" fill="#fff" r="5" cy="305.6989" cx="364.05952"/>
  <circle id="svg_42" fill="#fff" r="5" cy="359.6989" cx="427.05952"/>
  <circle id="svg_43" fill="#fff" r="5" cy="260.6989" cx="445.05952"/>
  <path id="svg_44" fill="#3f3d56" d="m507.58711,441.69891l0,-2a93.27173,93.27173 0 0 0 0,-186.54346l0,-2a95.27173,95.27173 0 0 1 0,190.54346z"/>
  <path id="svg_45" fill="#3f3d56" d="m508.05952,423.69891l-1,0l0,-2.52149l2,0l0,0.51465a71.47249,71.47249 0 0 0 -1,-142.938l0,-2a73.47241,73.47241 0 0 1 0,146.94483l0,0.00001z"/>
  <circle id="svg_51" fill="#fff" r="5" cy="51.85592" cx="200.14808"/>
  <circle id="svg_52" fill="#fff" r="5" cy="59.74953" cx="160.68049"/>
  <circle id="svg_53" fill="#fff" r="5" cy="92.11297" cx="163.04862"/>
  <circle id="svg_54" fill="#fff" r="5" cy="100.00658" cx="123.58102"/>
  <circle id="svg_55" fill="#fff" r="5" cy="40.6989" cx="329.05952"/>
  <circle id="svg_56" fill="#fff" r="5" cy="67.6989" cx="347.05952"/>
  <circle id="svg_57" fill="#fff" r="5" cy="112.6989" cx="347.05952"/>
  <polygon id="svg_58" fill="#f2f2f2" points="275.8529968261719,147.47799682617188 275.8529968261719,147.47799682617188 275.8529968261719,147.47799682617188 275.8529968261719,147.47799682617188 "/>
  <path id="svg_59" fill="#f2f2f2" d="m274.1533,147.50855c-5.53171,0.17315 -23.24738,1.33352 -32.45121,9.064c-10.99524,9.23529 -10.99569,18.0055 -5.66758,24.34912s13.96639,7.85835 24.96212,-1.3769c9.32062,-7.82832 13.513,-25.42051 14.57462,-30.60051l-1.41795,-1.43571z"/>
  <polygon id="svg_60" fill="#f2f2f2" points="415.26300048828125,34.98099899291992 415.26300048828125,34.98099899291992 415.26300048828125,34.98099899291992 415.26300048828125,34.98099899291992 "/>
  <path id="svg_61" fill="#f2f2f2" d="m416.32629,36.30727c3.51955,4.27112 15.27056,17.57921 27.01531,20.13477c14.0309,3.05282 20.97066,-2.30967 22.732,-10.40459s-2.32226,-15.85626 -16.35343,-18.90949c-11.89362,-2.58812 -28.37715,4.852 -33.125,7.17946l-0.26888,1.99985z"/>
  <polygon id="svg_62" fill="#f2f2f2" points="506.10601806640625,165.61900329589844 506.10601806640625,165.61900329589844 506.10601806640625,165.61900329589844 506.10601806640625,165.61900329589844 "/>
  <path id="svg_63" fill="#f2f2f2" d="m506.28359,167.31014c0.65015,5.49609 3.33589,23.0454 11.83217,31.54735c10.15021,10.15674 18.8877,9.3999 24.74756,3.54394s6.623,-14.59278 -3.52717,-24.75c-8.60389,-8.60986 -26.49238,-11.26757 -31.7447,-11.87792l-1.30786,1.53663z"/>
 </g>
</svg>