<svg width="564.46765" height="449.26526" xmlns="http://www.w3.org/2000/svg">
 <g>
  <title>Layer 1</title>
  <g id="svg_38">
   <path d="m-41.00001,431.17591c0,0.6042 0.47463,1.08935 1.06567,1.08935l361.1368,0c0.59099,0 1.06562,-0.48514 1.06562,-1.08935c0,-0.60415 -0.47463,-1.08935 -1.06562,-1.08935l-361.1368,0c-0.59104,0 -1.06567,0.4852 -1.06567,1.08935z" fill="#ccc" id="svg_2"/>
   <path d="m446.80472,432.02244l-184.96186,0c-9.73919,0 -17.66249,-8.10019 -17.66249,-18.05625l0,-374.90992c0,-9.95606 7.9233,-18.05625 17.66249,-18.05625l184.96186,0c9.73919,0 17.66293,8.10019 17.66293,18.05625l0,374.90992c0,9.95606 -7.92374,18.05625 -17.66293,18.05625zm-184.96186,-409.19159c-8.76561,0 -15.87154,7.26417 -15.87154,16.22497l0,374.91037c0,8.96105 7.10613,16.22542 15.87198,16.22542l184.96142,0c8.76585,0 15.87198,-7.26437 15.87198,-16.22542l0,-255.00834c0,-75.18087 -59.61854,-136.127 -133.16173,-136.127l-67.67211,0z" fill="#e6e6e6" id="svg_3"/>
   <g id="svg_4">
    <circle cx="296.71479" cy="184.05243" r="21.49144" fill="#e6e6e6" id="svg_5"/>
    <circle cx="411.93281" cy="184.05243" r="21.49144" fill="#e6e6e6" id="svg_6"/>
    <circle cx="354.32379" cy="184.05243" r="21.49144" fill="#e6e6e6" id="svg_7"/>
   </g>
   <circle cx="296.71479" cy="247.21624" r="21.49144" fill="#e6e6e6" id="svg_8"/>
   <circle cx="411.93281" cy="247.21624" r="21.49144" fill="#e6e6e6" id="svg_9"/>
   <circle cx="354.32379" cy="247.21624" r="21.49144" fill="#e6e6e6" id="svg_10"/>
   <circle cx="296.71479" cy="310.38004" r="21.49144" fill="#e6e6e6" id="svg_11"/>
   <circle cx="411.49329" cy="373.43572" r="21.49144" fill="#e6e6e6" id="svg_12"/>
   <ellipse cx="325.97526" cy="373.43572" rx="50.59444" ry="21.97002" fill="#e6e6e6" id="svg_13"/>
   <circle cx="411.93281" cy="310.38004" r="21.49144" fill="#e6e6e6" id="svg_14"/>
   <circle cx="354.32379" cy="310.38004" r="21.49144" fill="#ffa000" id="svg_15"/>
   <path d="m358.54726,46.6317l-205.54196,0c-6.09462,0 -11.05051,5.06621 -11.05051,11.29655l0,77.18736c0,6.23034 4.95589,11.29659 11.05051,11.29659l205.54196,0c6.09462,0 11.05051,-5.06625 11.05051,-11.29659l0,-77.18736c0,-6.23034 -4.95589,-11.29655 -11.05051,-11.29655z" fill="#fff" id="svg_16"/>
   <path d="m358.54726,46.6317l-205.54196,0c-6.09462,0 -11.05051,5.06621 -11.05051,11.29655l0,77.18736c0,6.23034 4.95589,11.29659 11.05051,11.29659l205.54196,0c6.09462,0 11.05051,-5.06625 11.05051,-11.29659l0,-77.18736c0,-6.23034 -4.95589,-11.29655 -11.05051,-11.29655zm9.88853,88.48391c0,5.57703 -4.43299,10.10873 -9.88853,10.10873l-205.54196,0c-5.45554,0 -9.88853,-4.5317 -9.88853,-10.10873l0,-77.18736c0,-5.57699 4.43299,-10.10869 9.88853,-10.10869l205.54196,0c5.45554,0 9.88853,4.5317 9.88853,10.10869l0,77.18736z" fill="#3f3d56" id="svg_17"/>
   <rect x="161.30348" y="93.31799" width="188.9456" height="6.40792" rx="3.5" ry="3.5" fill="#ffa000" id="svg_18"/>
  </g>
 </g>

</svg>