<svg width="623.35203" height="751.37419" xmlns="http://www.w3.org/2000/svg" data-name="Layer 1">

 <g>
  <title>Layer 1</title>
  <path id="svg_1" fill="#ffb6b6" d="m227.81452,332.092s13.871,14.334 15.10247,22.41535l-12.067,6.94989l-13.9274,-24.40645l-7.34549,-32.5797a5.53317,5.53317 0 1 1 9.22653,-2.36094l9.01089,29.98185z"/>
  <path id="svg_2" fill="#ffb6b6" d="m356.46759,297.72167a5.53317,5.53317 0 1 1 9.13261,2.70156l-8.549,32.28481l-14.82321,23.87305l-11.80085,-7.39271c1.53044,-8.03006 15.92356,-21.83971 15.92356,-21.83971l10.11689,-29.627z"/>
  <path id="svg_5" fill="#ffa000" d="m529.38706,143.90709c-3.53,-1.59 -7,-3.12 -10.32,-4.53c-0.5,-0.21 -1,-0.43 -1.5,-0.64l-0.06,-0.03q-4.485,-1.92 -8.99,-3.76c-2.1,-0.86005 -4.19,-1.71 -6.29,-2.54c-0.82,-0.34 -1.64,-0.66 -2.47,-0.98c-1.33,-0.53 -2.67,-1.05 -4,-1.57c-1.1,-0.43 -2.21,-0.85 -3.31,-1.27c-1.27,-0.49 -2.54,-0.96 -3.80005,-1.44q-2.25,-0.84 -4.49,-1.66a0.08994,0.08994 0 0 0 -0.05,-0.01c-1.13,-0.42 -2.26,-0.83 -3.38,-1.23c-15.21,-5.48 -30.64,-10.38 -45.88,-14.57q-0.825,-0.225 -1.65,-0.45q-1.425,-0.39 -2.85,-0.78q-2.52,-0.675 -5.06,-1.32c-1.59,-0.42 -3.19,-0.82 -4.79,-1.22c-1.41,-0.35 -2.82,-0.7 -4.24,-1.04c-1.39,-0.34 -2.78,-0.67 -4.18,-0.99q-6.25506,-1.47006 -12.49,-2.78a0.27632,0.27632 0 0 0 -0.09,-0.01c-1,-0.22 -1.99,-0.43 -2.99,-0.63c-15.18,-3.11 -30.62,-5.61 -45.89,-7.44c-0.75,-0.09 -1.5,-0.18 -2.25,-0.26l-0.02,0c-0.13,-0.02 -0.27,-0.03 -0.4,-0.04q-1.89,-0.225 -3.78,-0.42c-1.66,-0.18 -3.31,-0.35 -4.97,-0.51q-5.895,-0.585 -11.77,-1.02c-0.99,-0.08 -1.97,-0.15 -2.95,-0.21c-1.13,-0.09 -2.26,-0.16 -3.38,-0.23q-1.74,-0.12 -3.48,-0.21c-0.44,-0.03 -0.87,-0.05 -1.3,-0.07c-0.54,-0.04 -1.09,-0.06 -1.63,-0.09q-1.215,-0.06 -2.43,-0.12c-15.24,-0.73 -30.67,-0.79 -45.87,-0.18c-0.84,0.03 -1.68,0.07 -2.53,0.11l-0.03,0c-0.61,0.03 -1.22,0.05 -1.84,0.08c-0.22,0.01 -0.45,0.02 -0.67,0.03c-1.51,0.08 -3.02,0.16 -4.53,0.25c-1.61,0.09 -3.21,0.19 -4.81,0.3c-1.01,0.07 -2.01,0.14 -3.01,0.21c-0.66,0.05 -1.32,0.1 -1.99,0.15c-4.18,0.32 -8.36,0.69 -12.51,1.11c-1.39,0.14 -2.77,0.28 -4.15,0.43c-0.77,0.08 -1.53,0.16 -2.29,0.25c-15.24,1.72 -30.68,4.15 -45.88,7.21c-1,0.2 -2.01,0.41 -3.02,0.62c-0.02,0 -0.04,0.01 -0.06,0.01c-0.15,0.03 -0.31,0.06 -0.46,0.1c-1.04,0.21 -2.09,0.43 -3.13,0.66c-1.15,0.24 -2.29,0.49 -3.44,0.74c-0.96,0.21 -1.92,0.43 -2.88,0.65c-2.26,0.51 -4.53,1.03 -6.79,1.58q-6.9,1.65006 -13.79,3.49c-1.04,0.28 -2.09,0.56 -3.14,0.85a0.031,0.031 0 0 0 -0.02,0.01c-0.54,0.14 -1.09,0.29 -1.63,0.44c-15.2,4.18 -30.63,9.12 -45.87,14.7c-1.12,0.41 -2.24,0.82 -3.37,1.25a0.23548,0.23548 0 0 0 -0.08,0.02q-4.545,1.695 -9.14,3.48c-1.11,0.44 -2.23,0.88 -3.35,1.32c-1.08,0.43 -2.17,0.86 -3.25,1.3c-0.95,0.38 -1.89,0.76 -2.84,1.15c-0.76,0.31 -1.51,0.62 -2.27,0.93q-3.9,1.62 -7.79,3.28c-1.57,0.68 -3.15,1.36 -4.72,2.05c-0.51,0.22 -1.03,0.44 -1.54,0.67c-3.78,1.67005 -7.22,3.22 -10.52,4.75a20.3368,20.3368 0 0 0 -11.8,18.4l0,35.29a20.2371,20.2371 0 0 0 25.93,19.42c1.49,-0.44 2.98,-0.88 4.48,-1.32c1.25,-0.37 2.51,-0.73 3.76,-1.09c1.37,-0.39 2.73,-0.78 4.1,-1.17c3.12994,-0.87 6.28,-1.74 9.43,-2.58q2.205,-0.585 4.41,-1.17c2.31,-0.61 4.62,-1.2 6.93,-1.79q0.96,-0.24 1.92,-0.48c10.05,-2.52 20.15,-4.86 30.17,-6.98c1.03,-0.22 2.06,-0.43 3.08,-0.64q6.31494,-1.32 12.56,-2.5l3,-0.57l0.03,0c0.98,-0.19 1.96,-0.37 2.94,-0.55q4.11,-0.75 8.27,-1.46c1.59,-0.28 3.19,-0.55 4.79,-0.81c0.16,-0.03 0.32,-0.06 0.48,-0.07995q4.14,-0.69 8.3,-1.33c1.88,-0.29 3.77,-0.58 5.66,-0.85c1.61,-0.24 3.22,-0.47 4.83,-0.7c15.26,-2.14 30.67,-3.85 45.81,-5.05c1.31,-0.11 2.62,-0.21 3.93,-0.31c5.08,-0.38 10.2,-0.72 15.33,-1c6.34,-0.34 12.7,-0.61 19.03,-0.8c15.2,-0.47 30.61,-0.47 45.8,0c6.34,0.19 12.7,0.46 19.04,0.8c5.13,0.28 10.25,0.62005 15.33,1c1.31,0.1 2.62006,0.2 3.93006,0.31c15.12994,1.2 30.54,2.9 45.81994,5.05c0.73,0.1 1.45,0.21 2.18006,0.31c0.26,0.04 0.51,0.07 0.77,0.11c1.11,0.16 2.22,0.33 3.33,0.49q6.255,0.93 12.5,1.97c1.07,0.17 2.14,0.35 3.2,0.53q3.435,0.585 6.84,1.19c1.32,0.24 2.63,0.48 3.94,0.72c0.83,0.15 1.67005,0.3 2.5,0.46c1.01,0.19 2.02,0.38 3.02,0.57c1.65,0.31 3.3,0.63 4.96,0.96c1.04,0.21 2.09,0.41 3.14,0.63c11.19,2.25 22.49,4.78 33.74,7.54q1.755,0.435 3.51,0.87c0.16,0.04 0.31,0.08 0.47,0.12c1.21,0.3 2.42,0.61 3.63,0.92q2.595,0.66 5.2,1.35q2.205,0.57 4.41,1.17c4.54,1.21 9.08,2.47 13.59,3.76q4.125,1.185 8.21,2.4l0.02,0a19.75863,19.75863 0 0 0 3.32,0.68a19.33458,19.33458 0 0 0 2.4,0.15a20.22233,20.22233 0 0 0 20.18,-20.25l0,-35.13005a20.3188,20.3188 0 0 0 -12.01001,-18.49z"/>
  <path id="svg_6" fill="#3f3d56" d="m97.26707,125.25709a3.02459,3.02459 0 0 0 -2.72,-0.37a0.23548,0.23548 0 0 0 -0.08,0.02q-4.545,1.695 -9.14,3.48c-1.11,0.44 -2.23,0.88 -3.35,1.32c-1.08,0.43 -2.17,0.86 -3.25,1.3c-0.95,0.38 -1.89,0.76 -2.84,1.15c-0.76,0.31 -1.51,0.62 -2.27,0.93q-3.9,1.62 -7.79,3.28c-1.57,0.68 -3.15,1.36 -4.72,2.05a3.06358,3.06358 0 0 0 -1.84,2.81l0,72.77a3.05507,3.05507 0 0 0 1.24,2.47a3.26182,3.26182 0 0 0 0.8,0.43a3.00232,3.00232 0 0 0 1.87,0.04l4.47,-1.32q1.875,-0.54 3.75,-1.08c1.37006,-0.39 2.74,-0.78 4.12006,-1.17c3.12994,-0.87 6.28,-1.74 9.43,-2.58q2.205,-0.6 4.41,-1.17c2.31,-0.61 4.62,-1.2 6.93,-1.79a3.09437,3.09437 0 0 0 1.49,-0.88l0.01,-0.01a3.06593,3.06593 0 0 0 0.8,-2.06l0,-77.1a3.06113,3.06113 0 0 0 -1.32006,-2.52z"/>
  <path id="svg_7" fill="#3f3d56" d="m181.60699,101.03709a2.99982,2.99982 0 0 0 -2.48,-0.63c-0.02,0 -0.04,0.01 -0.06,0.01c-0.15,0.03 -0.31,0.06 -0.46,0.1c-1.04,0.21 -2.09,0.43 -3.13,0.66c-1.15,0.24 -2.29,0.49 -3.44,0.74c-0.96,0.21 -1.92,0.43 -2.88,0.65c-2.26,0.51 -4.53,1.03 -6.79,1.58q-6.915,1.65006 -13.79,3.49c-0.96,0.25 -1.93,0.51 -2.89,0.77a2.41075,2.41075 0 0 0 -0.25,0.08a0.031,0.031 0 0 0 -0.02,0.01a3.07868,3.07868 0 0 0 -1.99,2.87l0,82.29a3.04516,3.04516 0 0 0 1.1,2.35a2.89966,2.89966 0 0 0 0.79,0.47a3.07572,3.07572 0 0 0 1.16,0.23a3.2852,3.2852 0 0 0 0.54,-0.05l0.03,0c0.98,-0.19 1.96,-0.37 2.94,-0.55q4.11,-0.75 8.27,-1.46c1.59,-0.28 3.19,-0.55 4.79,-0.81c0.16,-0.03 0.32,-0.06 0.48,-0.07995q4.14,-0.69 8.3,-1.33c1.88,-0.29 3.77,-0.58 5.66,-0.85c0.88,-0.14 1.76,-0.26 2.64,-0.39a2.99378,2.99378 0 0 0 1.57,-0.72a3.06463,3.06463 0 0 0 1.05,-2.3l0,-84.75005a3.04973,3.04973 0 0 0 -1.14,-2.38z"/>
  <path id="svg_8" fill="#3f3d56" d="m265.95707,90.61709a3.08937,3.08937 0 0 0 -2.1,-0.85l-0.15,0c-0.57,0.03 -1.15,0.05 -1.72,0.08c-0.22,0.01 -0.45,0.02 -0.67,0.03c-1.51,0.08 -3.02,0.16 -4.53,0.25c-1.61,0.09 -3.21,0.19 -4.81,0.3c-1.01,0.07 -2.01,0.14 -3.01,0.21c-0.66,0.05 -1.32,0.1 -1.99,0.15c-4.18,0.32 -8.36,0.69 -12.51,1.11c-1.39,0.14 -2.77,0.28 -4.15,0.43a3.05759,3.05759 0 0 0 -2.73,3.05l0,87.19a3.01419,3.01419 0 0 0 0.98,2.23a2.968,2.968 0 0 0 0.62,0.45a3.07347,3.07347 0 0 0 1.46,0.37c0.07,0 0.15,-0.01 0.23,-0.01c0.39,-0.03 0.79,-0.06 1.18,-0.09c5.08,-0.38 10.2,-0.72 15.33,-1c5.53,-0.31 11.06,-0.55 16.56,-0.73a2.96088,2.96088 0 0 0 1.66,-0.54a3.04651,3.04651 0 0 0 1.3,-2.51l0,-87.9a3.039,3.039 0 0 0 -0.95,-2.22z"/>
  <path id="svg_9" fill="#3f3d56" d="m348.36704,92.75709l-0.02,0c-0.13,-0.02 -0.27,-0.03 -0.4,-0.04q-1.89,-0.225 -3.78,-0.42c-1.66,-0.18 -3.31,-0.35 -4.97,-0.51q-5.895,-0.585 -11.77,-1.02c-0.99,-0.08 -1.97,-0.15 -2.95,-0.21c-1.13,-0.09 -2.26,-0.16 -3.38,-0.23q-1.74,-0.12 -3.48,-0.21c-0.44,-0.03 -0.87,-0.05 -1.3,-0.07c-0.46,-0.03 -0.91,-0.06 -1.36,-0.08a2.43535,2.43535 0 0 0 -0.27,-0.01a2.98942,2.98942 0 0 0 -1.99,0.84a3.04873,3.04873 0 0 0 -0.96,2.23l0,87.71a3.02979,3.02979 0 0 0 1.31,2.51a2.92911,2.92911 0 0 0 1.65,0.54c5.5,0.18 11.03,0.42 16.56,0.73c5.13,0.28 10.25,0.62005 15.33,1c0.39,0.03 0.79,0.06 1.18006,0.09c0.07995,0 0.15,0.01 0.23,0.01a3.07353,3.07353 0 0 0 1.46,-0.37a2.96929,2.96929 0 0 0 0.62,-0.45a3.0515,3.0515 0 0 0 0.98,-2.23l0,-86.77a3.07447,3.07447 0 0 0 -2.69006,-3.04z"/>
  <path id="svg_10" fill="#3f3d56" d="m433.19706,109.22709a2.26616,2.26616 0 0 0 -0.24,-0.08c-0.87006,-0.24 -1.74,-0.47 -2.61005,-0.7q-2.52,-0.675 -5.06,-1.32c-1.59,-0.42 -3.19,-0.82 -4.79,-1.22c-1.41,-0.35 -2.82,-0.7 -4.24,-1.04c-1.39,-0.34 -2.78,-0.67 -4.18,-0.99q-6.25506,-1.47006 -12.49,-2.78a0.27632,0.27632 0 0 0 -0.09,-0.01a3.009,3.009 0 0 0 -2.46,0.63a3.0499,3.0499 0 0 0 -1.14,2.38l0,84.07a3.03907,3.03907 0 0 0 1.06006,2.3a2.96241,2.96241 0 0 0 1.56,0.72c0.26,0.04 0.51,0.07 0.77,0.11c1.11,0.16 2.22,0.32 3.33,0.49q6.255,0.93 12.5,1.97c1.07,0.17 2.14,0.35 3.2,0.53q3.435,0.585 6.84,1.19c1.32,0.24 2.63,0.48 3.94,0.72c0.83,0.15 1.67005,0.3 2.5,0.46a3.65388,3.65388 0 0 0 0.57,0.05a3.03793,3.03793 0 0 0 1.16,-0.23a2.75711,2.75711 0 0 0 0.79,-0.47a3.045,3.045 0 0 0 1.1,-2.35l0,-81.55a3.071,3.071 0 0 0 -2.02001,-2.88z"/>
  <path id="svg_11" fill="#3f3d56" d="m517.56705,138.73709l-0.06,-0.03q-4.485,-1.92 -8.99,-3.76c-2.1,-0.86005 -4.19,-1.71 -6.29,-2.54c-0.82,-0.34 -1.64,-0.66 -2.47,-0.98c-1.33,-0.53 -2.67,-1.05 -4,-1.57c-1.1,-0.43 -2.21,-0.85 -3.31,-1.27c-1.27,-0.49 -2.54,-0.96 -3.80005,-1.44q-2.25,-0.84 -4.49,-1.66a0.08994,0.08994 0 0 0 -0.05,-0.01a2.97542,2.97542 0 0 0 -2.74,0.38a3.05953,3.05953 0 0 0 -1.31,2.51l0,76.51a3.03813,3.03813 0 0 0 0.57,1.77a3.25208,3.25208 0 0 0 0.23,0.29l0.01,0.01a3.04938,3.04938 0 0 0 1.49,0.88c0.57,0.14 1.14,0.29 1.71,0.44q2.595,0.66 5.2,1.35q2.205,0.57 4.41,1.17c4.54,1.21 9.08,2.47 13.59,3.76q4.125,1.185 8.21,2.4l0.02,0a3.11674,3.11674 0 0 0 0.85,0.12a3.02762,3.02762 0 0 0 0.99,-0.17a2.9575,2.9575 0 0 0 0.8,-0.43a3.07376,3.07376 0 0 0 1.23,-2.47l0,-72.47a3.05226,3.05226 0 0 0 -1.79995,-2.79z"/>
  <path id="svg_12" fill="#3f3d56" d="m67.72431,215.67626c13.02232,8.77485 26.61927,16.66483 40.322,24.31954c14.65877,8.1888 29.47073,16.09968 44.13215,24.28374c14.74994,8.23346 29.36921,16.73237 43.47136,26.04141a299.99928,299.99928 0 0 1 38.7661,29.84209c11.4481,10.59661 21.817,22.43838 29.96818,35.77424q1.458,2.3853 2.81841,4.82787c0.94121,1.686 3.53339,0.175 2.59041,-1.51416a164.39189,164.39189 0 0 0 -28.70286,-36.87118a279.40457,279.40457 0 0 0 -38.14589,-30.76494c-14.01,-9.58975 -28.61492,-18.27973 -43.38832,-26.63268c-14.73014,-8.3285 -29.65133,-16.31157 -44.45886,-24.50034c-13.93881,-7.70836 -27.8079,-15.58551 -41.15956,-24.28226q-2.36172,-1.53834 -4.69894,-3.11375c-1.60543,-1.08178 -3.10855,1.51606 -1.51416,2.59042l-0.00002,0z"/>
  <path id="svg_13" fill="#3f3d56" d="m118.33934,180.47209a224.83949,224.83949 0 0 0 22.87631,39.93753a468.64184,468.64184 0 0 0 29.4249,36.92928c10.42577,12.0107 21.16383,23.74511 31.66508,35.68922c10.3818,11.80825 20.56091,23.825 29.85667,36.51548a239.725,239.725 0 0 1 23.92322,39.45561q1.21384,2.58312 2.34675,5.2029c0.76559,1.76681 3.35093,0.24094 2.59041,-1.51415a224.84072,224.84072 0 0 0 -22.87631,-39.93753a468.64,468.64 0 0 0 -29.42491,-36.92927c-10.42576,-12.01071 -21.16383,-23.74512 -31.66507,-35.68923c-10.38181,-11.80824 -20.56092,-23.825 -29.85667,-36.51548a239.72361,239.72361 0 0 1 -23.92322,-39.45561q-1.21386,-2.58312 -2.34675,-5.2029c-0.7656,-1.76681 -3.35093,-0.24094 -2.59041,1.51415z"/>
  <path id="svg_14" fill="#3f3d56" d="m485.05726,198.36156a376.86789,376.86789 0 0 1 -36.28039,30.50043c-13.2,9.93534 -26.75819,19.38141 -40.24915,28.914c-13.46911,9.51716 -26.89118,19.11782 -39.82408,29.35844a309.17175,309.17175 0 0 0 -35.05606,31.77549c-10.13166,10.92421 -19.21246,22.95527 -26.0196,36.2438q-1.22786,2.39694 -2.35368,4.84377c-0.80331,1.74136 1.7817,3.26722 2.59041,1.51416a152.13917,152.13917 0 0 1 24.48007,-36.69756a283.354,283.354 0 0 1 34.11465,-32.059c12.7129,-10.32016 25.99138,-19.91955 39.34378,-29.3887c13.50158,-9.575 27.10855,-19.00589 40.40589,-28.86516a424.3639,424.3639 0 0 0 36.87581,-30.12075q2.06739,-1.92717 4.09367,-3.89761c1.387,-1.34793 -0.73539,-3.46819 -2.12132,-2.12132l0,0.00001z"/>
  <path id="svg_15" fill="#3f3d56" d="m454.13745,170.74641a224.83967,224.83967 0 0 1 -22.87631,39.93752a464.74277,464.74277 0 0 1 -29.45895,36.90125c-10.436,12.00225 -21.17538,23.736 -31.66914,35.68735c-10.37452,11.81554 -20.52271,23.85478 -29.81856,36.54538a239.7255,239.7255 0 0 0 -23.92322,39.45562q-1.21384,2.58311 -2.34675,5.2029c-0.75979,1.7534 1.824,3.28287 2.59041,1.51416a224.84016,224.84016 0 0 1 22.87632,-39.9375a464.74476,464.74476 0 0 1 29.45894,-36.90124c10.436,-12.00225 21.17539,-23.736 31.66914,-35.68735c10.37453,-11.81554 20.52272,-23.85478 29.81856,-36.54539a239.72361,239.72361 0 0 0 23.92322,-39.45561q1.21386,-2.58312 2.34675,-5.2029c0.75979,-1.75341 -1.824,-3.28287 -2.59041,-1.51416l0,-0.00003z"/>
  <polygon id="svg_16" fill="#ffb6b6" points="232.66900634765625,551.6409912109375 234.55999755859375,558.2000122070312 260.7619934082031,554.0289916992188 257.9709930419922,544.3469848632812 232.66900634765625,551.6409912109375 "/>
  <path id="svg_17" fill="#2f2e41" d="m225.75979,553.38147l5.81411,20.172l0.25512,-0.07353a8.17158,8.17158 0 0 0 5.58876,-10.11428l-0.00014,-0.00048l1.73353,-4.49031l-4.77709,-6.06914l-0.50753,-1.7609l-8.10676,2.33664z"/>
  <polygon id="svg_18" fill="#ffb6b6" points="345.1709899902344,583.8610229492188 351.8320007324219,582.364013671875 349.2279968261719,555.9600219726562 339.3970031738281,558.1699829101562 345.1709899902344,583.8610229492188 "/>
  <path id="svg_19" fill="#2f2e41" d="m344.55561,591.34132l20.48235,-4.60295l-0.0582,-0.259a8.17158,8.17158 0 0 0 -9.76364,-6.181l-0.00049,0.00011l-4.37915,-1.99777l-6.34276,4.40732l-1.788,0.4018l1.84989,8.23149z"/>
  <path id="svg_20" fill="#2f2e41" d="m324.78405,442.44666l30.16139,123.75978l-14.75356,1.30727l-16.34774,-41.41817l-25.2349,-48.74917l2.28075,55.64172l-46.94917,27.45684l-11.03312,-15.11375l37.53273,-20.18676l-16.39533,-73.63727l4.36378,-9.06051l56.37517,0.00002z"/>
  <path id="svg_21" fill="#e6e6e6" d="m264.3541,453.28422c-4.88945,-6.84533 4.15591,-18.1156 5.265,-20.50013l0,0a5.98652,5.98652 0 0 1 -4.09768,-6.39362l0.47812,-4.06427l0.49837,-3.9865l-3.57039,-3.57039l-0.01,-0.089l-2.0547,-17.97866l-2.98749,-11.94123a26.21628,26.21628 0 0 1 7.441,-25.40665l6.90554,-1.09652l8.39238,-8.08616l13.53374,0l4.64038,4.43352c8.66257,1.51927 10.15077,1.0232 17.59176,9.9524l-3.38114,27.76108l-0.84349,3.81908l0.00249,5.17992l2.14441,2.38319a7.416,7.416 0 0 1 1.75916,6.4149l-0.282,1.41l0,0c2.21163,0.94781 4.322,17.79167 4.82623,20.14441l0.75317,3.51446c0.64435,0.85025 4.89747,6.52128 4.89747,8.07158c0,0.23276 -0.17181,0.45775 -0.54052,0.70734c-2.89844,1.96265 -28.27141,7.15858 -35.36179,4.32134c-7.55266,-3.01994 -26.00002,4.99991 -26.00002,4.99991z"/>
  <path id="svg_22" fill="#e6e6e6" d="m237.23431,370.91336l5.95068,7.27762a26.84052,26.84052 0 0 0 18.17865,9.72423l0,0a11.7502,11.7502 0 0 0 11.09926,-5.53517l0,0a11.72247,11.72247 0 0 0 -3.27243,-15.66687c-7.37184,-5.18163 -11.39326,-13.20969 -17.18871,-10.60666l-1.24683,-3.06215l-16.34031,-13.203l-13.39244,11.492l16.21213,19.58z"/>
  <path id="svg_23" fill="#e6e6e6" d="m352.42465,346.82869l-12.95691,-11.98087l-10.10526,6.435l-1.35956,3.01378c-5.6949,-2.81623 -16.72494,11.21 -24.28391,16.11458a11.72249,11.72249 0 0 0 -3.85134,15.5347l0,0a11.75021,11.75021 0 0 0 10.88631,5.94308l0,0a26.84051,26.84051 0 0 0 18.52684,-9.04321l6.21655,-7.05186l16.92728,-18.9652z"/>
  <circle id="svg_24" fill="#ffb6b6" r="15.03014" cy="331.2346" cx="286.46799"/>
  <path id="svg_25" fill="#2f2e41" d="m275.56023,341.82859c-0.13119,-0.11507 -0.255,-0.23792 -0.38325,-0.35618c-0.00461,0.01213 -0.0053,0.02456 -0.01021,0.03665l0.39346,0.31953z"/>
  <path id="svg_26" fill="#2f2e41" d="m300.57706,325.59709c-0.08,-0.05 -0.15,-0.1 -0.23,-0.14a5.47174,5.47174 0 0 0 -3.47,-1.17c-1.2,0.15 -2.19,1.01 -3.34,1.35c-2.47,0.72 -4.96,-1.04 -7.52,-1.22l-0.06,0a6.22152,6.22152 0 0 0 -6.6,5.82c-0.05,0.83 0.06,1.66 -0.04,2.48a2.53966,2.53966 0 0 1 -1.26,2.03c-1.13,0.51 -2.65,-0.25 -3.61,0.54c-0.85,0.71 -0.54,2.09 -0.03,3.08a4.50123,4.50123 0 0 1 0.83,2.87a2.17016,2.17016 0 0 1 -0.07,0.24a22.61191,22.61191 0 0 1 -7.2,-16.89a8.91639,8.91639 0 0 1 0.84,-4.04a4.217,4.217 0 0 1 3.21,-2.37c1.18,-0.1 2.4,0.43 3.52,0.05c1.38,-0.46 1.96,-2.05 2.68,-3.33a9.61922,9.61922 0 0 1 8.8,-4.77a19.07257,19.07257 0 0 1 3.74,0.75l2.37994,0.65a12.85173,12.85173 0 0 1 2.63,0.93a8.55954,8.55954 0 0 1 3.01,2.91a12.9475,12.9475 0 0 1 1.49,3.12a22.65807,22.65807 0 0 1 -3.95,-0.14c1.5,0.93 3.01,1.86 4.51,2.79a12.68545,12.68545 0 0 1 -0.25994,4.46z"/>
  <g id="svg_33" opacity="0.2">
   <path id="svg_34" d="m25.99999,201.05119c0.29522,-0.39124 0.60461,-0.76758 0.90551,-1.1529l0.01636,-0.15368l-0.92187,1.30658z"/>
   <path id="svg_35" d="m539.36411,205.17423a19.74847,19.74847 0 0 1 -20.49,11.96a20.08583,20.08583 0 0 1 -3.26,-0.67q-17.535,-5.22 -35.06,-9.6q-22.92,-5.75994 -45.84,-10.12994q-19.15494,-3.66 -38.31,-6.35q-22.935,-3.22494 -45.85,-5.06q-19.155,-1.545 -38.32,-2.11q-22.92,-0.705 -45.83,0q-19.15494,0.57 -38.32,2.11q-22.91994,1.83 -45.84,5.06q-19.155,2.7 -38.32,6.35q-22.92,4.365 -45.84,10.12994q-17.535,4.39509 -35.05,9.6a20.08583,20.08583 0 0 1 -3.26,0.67a19.7358,19.7358 0 0 1 -22.03,-19.61l0,-9.24c22.55,-20.39 54.45,-29.84 85.21,-33.06c36.58,-3.83 73.75,-0.56 110.13,-5.99c29.66,-4.43005 59.13,-14.64 88.91,-11.09c25.95,3.08 49.6,16.38 75.19,21.7c32.1,6.67 65.99,0.54 97.8,8.47c12.47,3.1 24.69,8.55 33.6,17.8a43.42383,43.42383 0 0 1 10.78,19.06z"/>
  </g>
  <circle id="svg_36" fill="#ffa000" r="19.21259" cy="394.49682" cx="288.12578"/>
  <path id="svg_37" fill="#fff" d="m285.50476,404.49609a2.13651,2.13651 0 0 1 -1.70954,-0.855l-5.24149,-6.98877a2.13709,2.13709 0 1 1 3.41942,-2.56439l3.42917,4.57187l8.80736,-13.21087a2.13718,2.13718 0 1 1 3.55648,2.371l-10.483,15.72448a2.138,2.138 0 0 1 -1.71893,0.951l-0.05947,0.00068z"/>
  <path id="svg_50" fill="#fff" d="m176.31267,419.85748a1.61963,1.61963 0 0 1 -1.29594,-0.64816l-3.97338,-5.29794a1.62005,1.62005 0 1 1 2.59214,-1.944l2.59953,3.46577l6.67654,-10.01469a1.62012,1.62012 0 0 1 2.696,1.79736l-7.94677,11.92017a1.62081,1.62081 0 0 1 -1.30306,0.721l-0.04506,0.00049z"/>
  <path id="svg_52" fill="#e6e6e6" d="m301.62209,349.78597c-0.71069,-2.09113 -3.45319,-2.48651 -5.6618,-2.48q-7.38639,0.0218 -14.75562,0.62829l0.49262,-0.56909a7.33753,7.33753 0 0 0 -4.13684,-0.46393c-1.35517,0.38447 -2.46888,1.94019 -1.85657,3.20875c0.45984,0.95269 1.74481,1.558 1.65246,2.61187c-0.15625,1.784 -3.60888,1.191 -4.146,2.89942a1.68128,1.68128 0 0 0 0.75634,1.7854a4.55692,4.55692 0 0 0 1.96161,0.62182a40.41357,40.41357 0 0 0 21.56665,-2.78076a9.0193,9.0193 0 0 0 3.18256,-1.9873a3.59464,3.59464 0 0 0 0.94459,-3.47447z"/>
 </g>
</svg>