<svg width="782.40551" height="665.60645" xmlns="http://www.w3.org/2000/svg" data-name="Layer 1">
 <g>
  <title>Layer 1</title>
  <rect x="319" y="485.60645" width="127" height="64" fill="#fff" id="svg_16"/>
  <rect x="334.00492" y="501.9894" width="96.99016" height="3.28781" fill="#ffa000" id="svg_17"/>
  <rect x="334.00492" y="515.96253" width="96.99016" height="3.28781" fill="#ffa000" id="svg_18"/>
  <rect x="334.00492" y="529.93568" width="96.99016" height="3.28781" fill="#ffa000" id="svg_19"/>
  <path d="m447,550.60644l-129,0l0,-66l129,0l0,66zm-127,-2l125,0l0,-62l-125,0l0,62z" fill="#3f3d56" id="svg_20"/>
  <path d="m354.73746,406.11497a144.4396,144.4396 0 0 1 -76.1117,-21.60705l-0.58075,-0.3598l0.35913,-0.58074l75.95212,-122.92238l145.16696,0l0,0.68354c0,79.83577 -64.95067,144.78643 -144.78576,144.78643z" fill="#ffa000" id="svg_21"/>
  <path d="m261.60042,353.922l-0.46666,-0.28878a116.25841,116.25841 0 0 1 -39.82172,-156.52455l0.27243,-0.47547l101.40059,57.943l-61.38464,99.3458z" fill="#f1f1f1" id="svg_22"/>
  <path d="m499.52322,241.25145l-145.63686,0l31.39562,-142.23216l0.66685,0.14652a144.83118,144.83118 0 0 1 113.57439,141.40209l0,0.68355z" fill="#ffa000" id="svg_23"/>
  <path d="m330.6896,218.85041l-98.6776,-56.38719l0.26523,-0.463a113.04267,113.04267 0 0 1 122.38838,-54.243l0.52108,0.11453l-24.49709,110.97866z" fill="#f1f1f1" id="svg_24"/>
  <rect x="573.00394" y="89.00015" width="127" height="64" fill="#fff" id="svg_25"/>
  <rect x="588.00885" y="105.3831" width="96.99016" height="3.28781" fill="#ffa000" id="svg_26"/>
  <rect x="588.00885" y="119.35623" width="96.99016" height="3.28781" fill="#ffa000" id="svg_27"/>
  <rect x="588.00885" y="133.32938" width="96.99016" height="3.28781" fill="#ffa000" id="svg_28"/>
  <path d="m701.00391,154l-129,0l0,-66l129,0l0,66zm-127,-2l125,0l0,-62l-125,0l0,62z" fill="#3f3d56" id="svg_29"/>
  <rect x="381.77173" y="319.96875" width="2" height="164.6377" fill="#3f3d56" id="svg_30"/>
  <rect x="383.6532" y="377.71495" width="164.78461" height="2" transform="rotate(-24.3375, -34.6034, 193.578)" fill="#3f3d56" id="svg_31"/>
 </g>

</svg>