<svg width="1094.72" height="788.69" xmlns="http://www.w3.org/2000/svg" data-name="Layer 1">

 <title>monitor</title>
 <g>
  <title>Layer 1</title>
  <g id="svg_1" opacity="0.5">
   <rect id="svg_2" fill="#d0d2d5" rx="14.12" height="134" width="134" y="367.69" x="960.72"/>
   <path id="svg_3" opacity="0.1" d="m1008.72,406.2l38,0s32,28 0,57l-38,0s-32,-26 0,-57z"/>
   <rect id="svg_4" fill="#3f3d56" height="15" width="5" y="422.19" x="1012.72"/>
   <rect id="svg_5" fill="#3f3d56" height="18" width="5" y="420.19" x="1037.72"/>
   <path id="svg_6" fill="#3f3d56" d="m1027.72,446.19l0,0a6,6 0 0 1 6,6l0,5a0,0 0 0 1 0,0l-12,0a0,0 0 0 1 0,0l0,-5a6,6 0 0 1 6,-6z"/>
  </g>
  <path id="svg_11" fill="#fbbebe" d="m562.3,146.82a10.36,10.36 0 0 0 -2.82,-2.55a8.54,8.54 0 0 0 -5.27,-0.54c-4.46,0.68 -8.6,2.72 -12.52,5c-3.16,1.81 -6.3,3.82 -8.56,6.67a6.85,6.85 0 0 0 -1.51,3a6.18,6.18 0 0 0 0.23,2.73a6.6,6.6 0 0 0 3.57,4.62c2.09,0.82 4.42,-0.05 6.52,-0.85c2.82,-1.09 5.92,-2.1 8.82,-1.24c2.15,0.64 4,2.27 6.27,2.33c2.67,0.08 4.83,-2.08 6.53,-4.14c1.47,-1.8 4.69,-5.05 4.48,-7.58s-4.16,-5.64 -5.74,-7.45z"/>
  <path id="svg_12" fill="#fbbebe" d="m596,224.65a17.27,17.27 0 0 1 -7.5,0.31c-1.52,-0.28 -3.38,-0.64 -4.35,0.55a3.58,3.58 0 0 0 -0.61,1.48c-2.49,10.19 -0.21,21 4,30.65a0.94,0.94 0 0 0 0.28,0.42c0.27,0.2 0.64,0.06 0.95,-0.07a11.28,11.28 0 0 0 2.83,-1.65c1.92,-1.74 2.33,-4.57 2.42,-7.16s0.05,-5.33 1.39,-7.55c1.68,-2.75 5.19,-4.09 6.57,-7c1.11,-2.37 0.53,-5.18 -0.45,-7.6c-0.33,-0.84 -0.46,-3 -1.24,-3.41s-3.4,0.79 -4.29,1.03z"/>
  <path id="svg_13" fill="#f86d70" d="m562.01,145.8a1,1 0 0 0 0.42,-1.3a3.38,3.38 0 0 0 -0.92,-1.18a20.69,20.69 0 0 1 -2.38,-2.74a27.68,27.68 0 0 0 -2.63,-3.44a4.85,4.85 0 0 0 -3.89,-1.56a6,6 0 0 0 -2.25,0.9a36.36,36.36 0 0 0 -7.45,5.72c-0.17,0.17 -0.36,0.38 -0.32,0.62s0.2,0.34 0.22,0.54a0.69,0.69 0 0 1 -0.18,0.49a20.68,20.68 0 0 1 -4.7,4.29q-3.78,2.84 -7.4,5.9a10.3,10.3 0 0 0 -3.45,4.23a8.41,8.41 0 0 0 0.63,5.89c1.67,3.92 4.58,7.16 7.45,10.31a3.78,3.78 0 0 0 1.92,1.35a2.42,2.42 0 0 0 1.72,-0.42c1.75,-1.15 2,-3.55 2.15,-5.64l0.16,-2.89a1.29,1.29 0 0 1 0.11,-0.55a1.35,1.35 0 0 1 0.61,-0.49l2.72,-1.44a8.77,8.77 0 0 0 -8,-4.16a3,3 0 0 1 -2.14,-0.29a1.76,1.76 0 0 1 0,-2.44a5.38,5.38 0 0 1 2.36,-1.31c7.17,-2.63 13.65,-6.85 20.61,-10a5.29,5.29 0 0 1 2.46,-0.57c0.7,0.05 1.52,0.46 2.17,0.18z"/>
  <path id="svg_14" fill="#f86d70" d="m590.26,250.52c-0.32,0.6 -0.43,1.3 -0.78,1.89s-1.11,1 -1.7,0.7a1.75,1.75 0 0 1 -0.66,-0.89a37.36,37.36 0 0 1 -2.45,-22.06a13.91,13.91 0 0 1 1.07,-3.52c0.53,-1.08 1.3,-2.18 1.08,-3.36a39.64,39.64 0 0 0 -8.18,3.64c-1.7,1 -3.49,2.39 -3.65,4.35a6.84,6.84 0 0 0 0.33,2.24l0.94,3.53a3.65,3.65 0 0 0 0.84,1.77c0.3,0.3 0.71,0.49 1,0.81a3,3 0 0 1 0.54,1.26l0.79,3.06a19.6,19.6 0 0 1 0.63,3.12c0.09,1 0,1.92 0.08,2.88a31,31 0 0 0 0.7,4.69l1.13,5.54a19.26,19.26 0 0 0 1.32,4.5c0.47,1 1.1,1.86 1.49,2.87c0.29,0.77 0.44,1.59 0.8,2.32a6.29,6.29 0 0 0 2.89,2.69a3.39,3.39 0 0 0 1.41,0.45c1.41,0.05 2.42,-1.32 3.08,-2.58a15.56,15.56 0 0 0 2,-7.5c0,-1.06 -0.22,-2.11 -0.31,-3.17c-0.25,-3 0.59,-5.91 0.58,-8.9c0.02,-2.8 -3.94,-2.27 -4.97,-0.33z"/>
  <path id="svg_19" fill="#434175" d="m655.36,236.6c-4.94,0.2 -9.89,0.14 -14.81,0.61c-2.87,0.28 -5.73,0.75 -8.61,0.87c-3.14,0.14 -6.29,-0.11 -9.44,-0.05c-7.93,0.17 -15.75,2.28 -23.38,4.46a44.4,44.4 0 0 1 -3.31,-16.57a10.57,10.57 0 0 1 0,-1.13a11.37,11.37 0 0 1 1.41,-4.58c7,-2 14.1,-4 21.37,-3.9c2.37,0 4.72,0.28 7.08,0.35c6.85,0.21 13.51,-2.86 20.31,-2a3.2,3.2 0 0 0 3.25,-1.91c0.29,-0.74 0.41,-1.71 1.16,-2c0.54,-0.2 1.28,0.05 1.62,-0.41a2.1,2.1 0 0 0 0.21,-0.79c0.2,-1 1.21,-1.45 2,-2c2,-1.38 3.13,-3.74 4.13,-6a4.07,4.07 0 0 0 0.47,-1.58c0,-0.44 -0.14,-0.88 -0.13,-1.33c0,-1.58 1.77,-2.49 2.69,-3.78c1.21,-1.7 1,-4 1.59,-6c0.8,-2.52 2.93,-4.31 3.46,-6.79a4.94,4.94 0 0 0 0.12,-0.77a31.32,31.32 0 0 1 -7.21,5.54c-8.88,5.47 -19.5,8.74 -27.79,15.07c-6.58,5 -16.22,4.85 -23.42,0.78a54.16,54.16 0 0 1 -7.66,-5.67c-3.66,-3 -7.36,-6.07 -11.19,-8.93q-4,-3 -8.29,-5.79a114.13,114.13 0 0 0 -10.74,-6.29c-4.58,-2.32 -9.19,-4.62 -14.29,-5.17a10.53,10.53 0 0 1 -0.28,-8.64a29.14,29.14 0 0 1 4.68,-7.55a21.78,21.78 0 0 1 5.36,-5.47a1.46,1.46 0 0 1 1.56,0l19.82,12.17l3.71,2.27c8.13,5 16.13,10.35 24.26,15.32c0.15,0.57 0.94,0.64 1.51,0.49s1.22,-0.39 1.71,-0.06c0.24,0.16 0.41,0.46 0.71,0.52a1,1 0 0 0 0.66,-0.22c3.36,-2.31 5.08,-6.75 8.85,-8.3c1.61,-0.66 3.52,-0.76 4.78,-2a22.71,22.71 0 0 0 2,-3c1.63,-2.13 4.72,-2.77 6.23,-5a18.35,18.35 0 0 1 3.57,-3.84a33.83,33.83 0 0 0 7,-7.79a18.08,18.08 0 0 0 2.29,-4.72c0.26,-0.87 0.42,-1.77 0.71,-2.63c0.91,-2.62 3,-4.63 5.09,-6.45c3.79,-3.32 7.88,-6.47 12.68,-8a21.44,21.44 0 0 0 4.83,-1.75c1.93,-1.18 3.7,-3.37 5.91,-2.86a5,5 0 0 1 2.19,1.38a69.61,69.61 0 0 1 7.45,8.53q5.35,6.81 10.69,13.63a15.75,15.75 0 0 0 4.19,4.15a11.49,11.49 0 0 0 7.75,1c-0.35,3.71 -3.3,6.77 -4.52,10.29c-0.59,1.71 -0.82,3.53 -1.26,5.28a43.25,43.25 0 0 1 -2.37,6.41c-2.4,5.59 -4.82,11.21 -8.26,16.23c-1.78,2.61 -3.83,5 -5.84,7.45c-7.93,9.57 -14,21.11 -23,29.72c-2.18,2.11 -3.56,5 -6,6.81c-2.65,1.96 -6.07,2.26 -9.26,2.39z"/>
  <path id="svg_20" opacity="0.1" d="m693.04,109.72a5.43,5.43 0 0 0 -2.5,0.75c1.83,-0.64 4.06,1.07 5.75,0.26c0.79,-0.38 0.67,-0.49 0,-0.72c-1.01,-0.34 -2.23,-0.03 -3.25,-0.29z"/>
  <rect id="svg_21" fill="#d0d2d5" transform="rotate(-19.55, -165.92, 317.79)" height="14" width="78" y="826.20001" x="822.07"/>
  <path id="svg_22" fill="#d0d2d5" transform="rotate(-19.55, -173.65, 327.59)" d="m838.92001,863.36l71,0a7,7 0 0 1 7,7l0,0a7,7 0 0 1 -7,7l-71,0a0,0 0 0 1 0,0l0,-14a0,0 0 0 1 0,0z"/>
  <path id="svg_23" fill="#3f3d56" transform="rotate(-19.55, -178.14, 307.13)" d="m785.48,803.68l17.3,0a58,58 0 0 1 58,58l0,17.3a22.68,22.68 0 0 1 -22.68,22.68l-52.62,0a22.68,22.68 0 0 1 -22.68,-22.68l0,-52.62a22.68,22.68 0 0 1 22.68,-22.68z"/>
  <path id="svg_24" opacity="0.1" d="m692.14,119.48a3.88,3.88 0 0 0 -2.11,-0.13a4.46,4.46 0 0 0 -2.75,1.35a1.5,1.5 0 0 0 1.23,0a7.27,7.27 0 0 1 2,-0.22c0.58,0 2.31,0.64 2.76,0.36c0.66,-0.43 -0.68,-1.19 -1.13,-1.36z"/>
  <path id="svg_26" opacity="0.1" d="m656.06,215.92l-60.26,8.87a11.37,11.37 0 0 1 1.41,-4.58c7,-2 14.1,-4 21.37,-3.9c2.37,0 4.72,0.28 7.08,0.35c6.85,0.21 13.51,-2.86 20.31,-2a3.2,3.2 0 0 0 3.25,-1.91c0.29,-0.74 0.41,-1.71 1.16,-2c0.54,-0.2 1.28,0.05 1.62,-0.41a2.1,2.1 0 0 0 0.21,-0.79c0.2,-1 1.21,-1.45 2,-2c2,-1.38 3.13,-3.74 4.13,-6a4.07,4.07 0 0 0 0.47,-1.58c0,-0.44 -0.14,-0.88 -0.13,-1.33c0,-1.58 1.77,-2.49 2.69,-3.78c1.21,-1.7 1,-4 1.59,-6c0.8,-2.52 2.93,-4.31 3.46,-6.79l0.26,-0.34l10.26,-4l-20.88,38.19z"/>
  <ellipse id="svg_27" opacity="0.1" fill="#ffa000" ry="33" rx="425" cy="668.67" cx="425"/>
  <ellipse id="svg_28" opacity="0.1" fill="#ffa000" ry="35.77" rx="275" cy="752.92" cx="800.72"/>
  <path id="svg_29" stroke-width="12" stroke-miterlimit="10" stroke="#3f3d56" fill="none" d="m475.25,641.95l0.28,-14.16q20,-1.14 40,-1.52c7.74,-0.14 15.58,-0.19 23.07,1.75c5.19,1.35 10.1,3.63 15.22,5.23c10.2,3.18 21,3.6 31.71,3.89c10.39,0.29 21.24,0.39 30.57,-4.2c16.15,-8 22.94,-27.65 23.73,-45.64s-2.79,-36.12 -0.3,-54"/>
  <polygon id="svg_30" fill="#d0d2d5" points="511.81 669.66 333.62 667.38 334.14 662.81 342.76 587.42 499.24 587.42 510.76 662.81 511.64 668.52 511.81 669.66"/>
  <polygon id="svg_31" opacity="0.1" points="511.64 668.52 422.71 668.52 333.62 667.38 334.14 662.81 510.76 662.81 511.64 668.52"/>
  <rect id="svg_32" fill="#d0d2d5" height="5.71" width="236.45" y="663.95" x="303.92"/>
  <path id="svg_33" fill="#3f3d56" d="m765.96,134.62a14.87,14.87 0 0 0 -14.8,-15l-660.32,0a14.88,14.88 0 0 0 -14.8,15l0,400.26l689.92,0l0,-400.26z"/>
  <path id="svg_34" fill="#d0d2d5" d="m76.04,530.88l0,46.89a14.8,14.8 0 0 0 14.8,14.8l660.32,0a14.8,14.8 0 0 0 14.8,-14.8l0,-46.89l-689.92,0z"/>
  <rect id="svg_35" fill="#2f2e41" height="359.81" width="636.23" y="144.8" x="104.6"/>
  <path id="svg_36" fill="#ffa000" d="m424.43,574.78a15.43,15.43 0 0 0 12.13,-5.89l0,0a15.28,15.28 0 0 0 1.2,-1.77l-8.46,-1.39l9.15,0.07a15.44,15.44 0 0 0 0.29,-12.22l-12.27,6.37l11.32,-8.32a15.42,15.42 0 1 0 -25.43,17.25l0,0a15.4,15.4 0 0 0 12.07,5.9z"/>
  <polygon id="svg_37" opacity="0.1" points="439.85 592.56 510.94 663.95 500.03 592.56 439.85 592.56"/>
  <path id="svg_38" stroke-width="12" stroke-miterlimit="10" stroke="#3f3d56" fill="none" d="m745.18,141.87l38.18,-50.59c2.28,-3 4.63,-6.13 7.76,-8.29c9,-6.22 22.19,-2.54 29.72,5.43s10.69,19.06 13,29.78a316.11,316.11 0 0 1 7.16,75.15c-0.32,13.29 -1.51,26.72 -5.74,39.33c-6.42,19.18 -19.43,35.33 -29.26,53c-15.83,28.47 -22.46,66.44 -2.42,92.13c6.53,8.37 15.42,14.77 21.45,23.51c6.81,9.87 9.46,21.94 12,33.66c3.79,17.7 7.59,35.51 8.29,53.6c2.26,58.49 -31.09,116.93 -82.59,144.75c-35.75,19.32 -79,24.92 -110.09,51.12c-11,9.23 -20.48,22.8 -17.78,36.86c2.2,11.41 12.22,20.08 23.22,23.85s22.93,3.46 34.53,2.8a636.33,636.33 0 0 0 83,-10.25c23.23,-4.44 46.42,-8.27 66.67,-20.49a14,14 0 0 0 5.05,-4.53c1.31,-2.19 1.53,-4.84 1.71,-7.39c0.55,-7.51 1.07,-15.3 -1.58,-22.35c-3.09,-8.24 -10.14,-14.48 -13.52,-22.6s-2.77,-17.47 -0.58,-26c2.7,-10.54 7.61,-20.36 12.55,-30.05c4.81,-9.44 9.69,-18.85 15.35,-27.8c15.94,-25.16 37.72,-46 59.27,-66.55"/>
  <path id="svg_56" opacity="0.1" d="m933.8,537.35c-3.45,-0.87 -6.58,-3.09 -9.25,-5.53a39,39 0 0 1 -6.14,-6.95a50.28,50.28 0 0 1 -5.29,-11.16a129.34,129.34 0 0 1 -7,-32.28c-0.26,-3 -0.34,-6.21 1.45,-8.59a7.23,7.23 0 0 1 8.74,-2.13c2.37,1.16 3.9,3.49 5.31,5.71c2.82,4.43 5.65,8.9 7.46,13.82c0.8,2.18 1.39,4.43 2.17,6.62a61,61 0 0 0 2.74,6.33c0.15,1.08 0.28,2.16 0.38,3.25c0.93,10.22 -0.49,20.55 -0.57,30.91z"/>
  <path id="svg_62" fill="#ffa000" d="m170.78,650.29l19.14,-11.26a46.29,46.29 0 0 0 -9.79,-11.7l-36.11,11.23l28.34,-16.64a46,46 0 0 0 -68.1,40.35c0,25.4 20.59,26.29 46,26.29s46,-0.89 46,-26.29a45.71,45.71 0 0 0 -4,-18.66l-21.48,6.68z"/>
  <path id="svg_63" opacity="0.1" d="m175.65,674.99a35.81,35.81 0 0 0 -6.78,-5.33c-3.48,-2.31 -7.07,-4.67 -11.17,-5.45c-3.6,-0.69 -7.31,-0.11 -11,-0.31a25.65,25.65 0 0 1 -16.81,-7.71c-2.61,-2.7 -4.67,-6 -7.81,-8.09c-3.39,-2.22 -7.69,-2.7 -11.71,-2.15a31.2,31.2 0 0 0 -3.46,0.71a45.9,45.9 0 0 0 -2.72,15.61c0,25.4 20.59,26.29 46,26.29c12.33,0 23.52,-0.21 31.78,-3.33l-1.38,-2.58a36.08,36.08 0 0 0 -4.94,-7.66z"/>
  <path id="svg_64" fill="#ffa000" d="m583.96,714.6l-25.39,-14.93a61.14,61.14 0 0 1 13,-15.52l47.89,14.89l-37.53,-22.06a61,61 0 0 1 90.31,53.5c0,33.69 -27.31,34.86 -61,34.86s-61,-1.17 -61,-34.86a60.84,60.84 0 0 1 5.23,-24.75l28.49,8.87z"/>
  <path id="svg_65" opacity="0.1" d="m577.49,747.35a47.57,47.57 0 0 1 9,-7.07c4.61,-3.06 9.38,-6.18 14.81,-7.22c4.77,-0.91 9.69,-0.14 14.54,-0.42a34.09,34.09 0 0 0 22.3,-10.21c3.46,-3.59 6.19,-8 10.36,-10.73c4.49,-3 10.19,-3.59 15.52,-2.85a38.27,38.27 0 0 1 4.6,0.94a60.88,60.88 0 0 1 3.6,20.69c0,33.69 -27.31,34.86 -61,34.86c-16.35,0 -31.19,-0.27 -42.15,-4.41l1.83,-3.42c1.91,-3.57 3.85,-7.16 6.59,-10.16z"/>
 </g>
</svg>